<?xml version="1.0"?>
<svg xmlns="http://www.w3.org/2000/svg" id="Layer_1" data-name="Layer 1" viewBox="0 0 512 512" width="512" height="512"><path d="M285.657,237.657l8-8-11.313-11.313L276.687,224H227.313l-5.657-5.657-11.313,11.313,8,8A8,8,0,0,0,224,240h56A8,8,0,0,0,285.657,237.657Z"/><rect x="248" y="248" width="16" height="16"/><path d="M507.249,376.689l-72-32A8,8,0,0,0,432,344H320V280.251l15.619-13.388A23.971,23.971,0,0,0,344,248.641V219.313l21.657-21.657A8,8,0,0,0,368,192V128a8,8,0,0,0-10.53-7.589L344,124.9V112h16a8,8,0,0,0,8-8V80a8,8,0,0,0-8-8H342.563a97.833,97.833,0,0,0-11.779-28.24C322.18,29.994,306.693,14,280,9.337V8a8,8,0,0,0-8-8H240a8,8,0,0,0-8,8v.334c-31.65,2.589-49.356,20.341-58.784,35.426A97.833,97.833,0,0,0,161.437,72H152a8,8,0,0,0-8,8v24a8,8,0,0,0,8,8h16v12.9l-13.47-4.49A8,8,0,0,0,144,128v64a8,8,0,0,0,2.343,5.657L168,219.313v29.328a23.973,23.973,0,0,0,8.381,18.222L192,280.251V344H88a8,8,0,0,0-2.971.572l-80,32A8,8,0,0,0,0,384V512H16V389.417L89.541,360H120V488H104V456H88v56h16v-8H408.047L408,511.952l16,.1.333-56-16-.1L408.143,488H392V360h38.3L496,389.2V512h16V384A8,8,0,0,0,507.249,376.689ZM197.436,360l45.207,32.292a23.929,23.929,0,0,0,26.669.822q.248-.155.484-.328L314.614,360H328V488H184V360ZM352,139.1v49.587l-8,8v-54.92ZM248,16h16V40H248Zm-16,8.4V48a8,8,0,0,0,8,8h32a8,8,0,0,0,8-8V25.673C310.568,32.432,322.032,58.092,326.059,72H177.941C182.3,56.939,195.381,28.094,232,24.4ZM160,88H352v8H160Zm0,100.687V139.1l8,2.667v54.92Zm24,59.955V112H328V248.641a7.988,7.988,0,0,1-2.794,6.074l-45.919,39.359A8.006,8.006,0,0,1,274.081,296H237.918a8,8,0,0,1-5.206-1.926l-45.919-39.359A7.99,7.99,0,0,1,184,248.641Zm38.3,57.581A24.014,24.014,0,0,0,237.918,312h36.163a24.016,24.016,0,0,0,15.619-5.778L304,293.965V347.94l-43.375,31.73a7.974,7.974,0,0,1-8.682-.4L208,347.883V293.965ZM136,488V360h32V488Zm240,0H344V360h32Z"/><path d="M237.657,181.657,248,171.313V192a8,8,0,0,0,8,8h16V184h-8V171.313l10.343,10.343A8,8,0,0,0,280,184h32a8,8,0,0,0,7.845-6.431l8-40A8,8,0,0,0,320,128H192a8,8,0,0,0-7.845,9.569l8,40A8,8,0,0,0,200,184h32A8,8,0,0,0,237.657,181.657ZM206.559,168l-4.8-24H310.242l-4.8,24H283.313l-13.657-13.657A8,8,0,0,0,264,152H248a8,8,0,0,0-5.657,2.343L228.687,168Z"/></svg>
