<svg id="Layer_2" height="512" viewBox="0 0 128 128" width="512" xmlns="http://www.w3.org/2000/svg" data-name="Layer 2"><rect fill="#5b6ea2" height="11.5" rx="5.75" width="124.5" x="1.75" y="58.25"/><path d="m93.6 114.5h-59.2a20 20 0 0 1 -19.514-15.635l-6.511-29.115h111.25l-6.511 29.115a20 20 0 0 1 -19.514 15.635z" fill="#f7d56b"/><path d="m36.989 126.25h-9.875l10.008-11.75h9.875z" fill="#5b6ea2"/><path d="m91.011 126.25h9.875l-10.008-11.75h-9.875z" fill="#5b6ea2"/><path d="m114.75 58.25h-8v-37.626a10.874 10.874 0 1 0 -21.747 0v6.628h-8.003v-6.628a18.874 18.874 0 1 1 37.747 0z" fill="#86dbd5"/><path d="m76.757 27.252h8.493a7 7 0 0 1 7 7v2.585a0 0 0 0 1 0 0h-22.493a0 0 0 0 1 0 0v-2.585a7 7 0 0 1 7-7z" fill="#5b6ea2"/></svg>