<svg id="Layer_2" height="512" viewBox="0 0 128 128" width="512" xmlns="http://www.w3.org/2000/svg" data-name="Layer 2"><rect fill="#5b6ea2" height="10.083" rx="2" width="87.917" x="1.75" y="116.167"/><path d="m75.544 116.167h-62.794v-29.834h72.802z" fill="#eef0f1"/><path d="m13.667 35.335h35.333a4 4 0 0 1 4 4v6.335a0 0 0 0 1 0 0h-43.333a0 0 0 0 1 0 0v-6.335a4 4 0 0 1 4-4z" fill="#ec7887"/><path d="m35.333 35.335h-8v-19.585a14.015 14.015 0 0 1 14-14h27.334a14.015 14.015 0 0 1 14 14v8.917h-8v-8.917a6.006 6.006 0 0 0 -6-6h-27.334a6.006 6.006 0 0 0 -6 6z" fill="#86dbd5"/><path d="m126.25 51.333v-5.663h-124.5v12.663h123.8a35.165 35.165 0 0 0 .7-7z" fill="#f7d56b"/><path d="m1.75 58.333v17a11 11 0 0 0 11 11h78.5a35.011 35.011 0 0 0 34.3-28z" fill="#5b6ea2"/></svg>