<svg id="Layer_2" height="512" viewBox="0 0 128 128" width="512" xmlns="http://www.w3.org/2000/svg" data-name="Layer 2"><path d="m16.333 11.758h95.333v14.25h-95.333z" fill="#86dbd5"/><rect fill="#eef0f1" height="13.932" rx="2" width="29" x="49.5" y="64.159"/><path d="m111.667 16.158v6.133a11.594 11.594 0 0 1 8.583 11.176v17.658a17.019 17.019 0 0 1 -17 17h-24.75v6h24.75a23.026 23.026 0 0 0 23-23v-17.658a17.6 17.6 0 0 0 -14.583-17.309z" fill="#5b6ea2"/><path d="m49.5 68.125h-24.75a17.019 17.019 0 0 1 -17-17v-17.658a11.594 11.594 0 0 1 8.583-11.176v-6.133a17.6 17.6 0 0 0 -14.583 17.309v17.658a23.026 23.026 0 0 0 23 23h24.75z" fill="#5b6ea2"/><g fill="#f7d56b"><path d="m78.5 74.125v1.966a2 2 0 0 1 -2 2h-25a2 2 0 0 1 -2-2v-1.966h-22l4.672 42.117h63.65l4.678-42.117z"/><path d="m22.167 26.008 4.671 42.117h22.662v-1.966a2 2 0 0 1 2-2h25a2 2 0 0 1 2 2v1.966h22.662l4.671-42.117z"/></g></svg>