<svg id="Layer_2" height="512" viewBox="0 0 128 128" width="512" xmlns="http://www.w3.org/2000/svg" data-name="Layer 2"><path d="m1.75 29.408h124.5v96.842h-124.5z" fill="#5b6ea2"/><path d="m11.75 39.408h104.5v76.842h-104.5z" fill="#eef0f1"/><path d="m1.75 1.75h124.5v27.748h-124.5z" fill="#86dbd5"/><path d="m1.75 1.75h124.5v27.748h-124.5z" fill="#86dbd5"/><path d="m9.75 11.25h86.744v8.748h-86.744z" fill="#eef0f1"/><circle cx="112.376" cy="15.624" fill="#5b6ea2" r="5.874"/><path d="m11.75 99.25h104.5v17h-104.5z" fill="#f7d56b"/><path d="m34.506 49.416a0 0 0 0 1 0 0v49.834a0 0 0 0 1 0 0 12.748 12.748 0 0 1 -12.748-12.75v-24.336a12.748 12.748 0 0 1 12.748-12.748z" fill="#5b6ea2"/><path d="m34.506 54.431v39.8a12.717 12.717 0 0 0 10.119 5.019v-49.834a12.715 12.715 0 0 0 -10.119 5.015z" fill="#d6d8d8"/><path d="m44.625 54.431v39.8a12.717 12.717 0 0 0 10.119 5.019v-49.834a12.715 12.715 0 0 0 -10.119 5.015z" fill="#5b6ea2"/><path d="m54.744 54.431v39.8a12.714 12.714 0 0 0 10.118 5.019v-49.834a12.711 12.711 0 0 0 -10.118 5.015z" fill="#d6d8d8"/><path d="m64.862 86.5v11.993a12.707 12.707 0 0 0 4.294.757h24.338a12.749 12.749 0 0 0 12.748-12.75z" fill="#5b6ea2"/><path d="m11.75 84.751h104.5v3.5h-104.5z" fill="#ec7887"/></svg>