<svg id="Layer_2" height="512" viewBox="0 0 128 128" width="512" xmlns="http://www.w3.org/2000/svg" data-name="Layer 2"><path d="m1.75 1.75h124.5v124.5h-124.5z" fill="#5b6ea2"/><circle cx="64" cy="64" fill="#eef0f1" r="49.333"/><g fill="#86dbd5"><path d="m87.49 32.47h-46.98a39.271 39.271 0 0 1 46.98 0z"/><path d="m100.82 50.18h-73.64a38.947 38.947 0 0 1 3.97-7.8h65.7a38.947 38.947 0 0 1 3.97 7.8z"/><path d="m103.33 64c0 1.32-.07 2.62-.19 3.9h-78.28c-.12-1.28-.19-2.58-.19-3.9s.07-2.62.19-3.9h78.28c.12 1.28.19 2.58.19 3.9z"/><path d="m100.82 77.82a38.947 38.947 0 0 1 -3.97 7.8h-65.7a38.947 38.947 0 0 1 -3.97-7.8z"/><path d="m87.49 95.53a39.271 39.271 0 0 1 -46.98 0z"/></g><path d="m107.159 11.758h9.083v9.083h-9.083z" fill="#f7d56b"/><path d="m11.758 11.758h9.083v9.083h-9.083z" fill="#f7d56b" transform="matrix(-1 0 0 -1 32.599 32.599)"/><path d="m107.159 107.159h9.083v9.083h-9.083z" fill="#f7d56b"/><path d="m11.758 107.159h9.083v9.083h-9.083z" fill="#f7d56b" transform="matrix(-1 0 0 -1 32.599 223.401)"/></svg>