<svg id="Layer_2" height="512" viewBox="0 0 128 128" width="512" xmlns="http://www.w3.org/2000/svg" data-name="Layer 2"><path d="m75.218 90.563h-17.718a20.023 20.023 0 0 1 -20-20v-17.844h-30v17.844a50.057 50.057 0 0 0 50 50h17.718z" fill="#5b6ea2"/><path d="m7.5 12.688h30v29.032h-30z" fill="#5b6ea2"/><path d="m86.218 90.563h29.032v30h-29.032z" fill="#5b6ea2"/><path d="m27.5 43.47a1.75 1.75 0 0 1 -1.75-1.75v-29.032a1.75 1.75 0 0 1 3.5 0v29.032a1.75 1.75 0 0 1 -1.75 1.75z" fill="#4a5983"/><path d="m75.218 102.313h-17.718a31.787 31.787 0 0 1 -31.75-31.75v-17.843a1.75 1.75 0 0 1 3.5 0v17.843a28.282 28.282 0 0 0 28.25 28.25h17.718a1.75 1.75 0 0 1 0 3.5z" fill="#4a5983"/><path d="m115.25 102.313h-29.032a1.75 1.75 0 0 1 0-3.5h29.032a1.75 1.75 0 0 1 0 3.5z" fill="#4a5983"/><g fill="#86dbd5"><path d="m1.75 1.688h41.5v11h-41.5z"/><path d="m1.75 41.719h41.5v11h-41.5z"/><path d="m100 100.063h41.5v11h-41.5z" transform="matrix(0 1 -1 0 226.313 -15.188)"/><path d="m59.968 100.063h41.5v11h-41.5z" transform="matrix(0 1 -1 0 186.281 24.844)"/></g></svg>