<svg id="Layer_2" height="512" viewBox="0 0 128 128" width="512" xmlns="http://www.w3.org/2000/svg" data-name="Layer 2"><path d="m1.75 61.001h124.5v23.166h-124.5z" fill="#ec7887"/><rect fill="#5b6ea2" height="7.166" rx="3.583" width="22.575" x="95.675" y="69.001"/><rect fill="#5b6ea2" height="7.166" rx="3.583" width="22.575" x="9.75" y="69.001"/><path d="m42.333 69.001h43.333v7.166h-43.333z" fill="#5b6ea2"/><g fill="#f7d56b"><path d="m96.609 32.25v-30.5h-65.218v30.5l-20.016 28.751h105.25z"/><path d="m45.492 128a1.75 1.75 0 0 1 -1.75-1.75 9.188 9.188 0 0 1 2.367-6.227 5.916 5.916 0 0 0 0-8.162 9.368 9.368 0 0 1 0-12.45 5.74 5.74 0 0 0 1.632-4.078 1.75 1.75 0 0 1 3.5 0 9.17 9.17 0 0 1 -2.368 6.224 5.912 5.912 0 0 0 0 8.158 9.374 9.374 0 0 1 0 12.454 5.745 5.745 0 0 0 -1.633 4.081 1.75 1.75 0 0 1 -1.748 1.75z"/><path d="m62 128a1.75 1.75 0 0 1 -1.75-1.75 9.184 9.184 0 0 1 2.367-6.227 5.916 5.916 0 0 0 0-8.162 9.368 9.368 0 0 1 0-12.45 5.745 5.745 0 0 0 1.632-4.078 1.75 1.75 0 0 1 3.5 0 9.175 9.175 0 0 1 -2.368 6.224 5.912 5.912 0 0 0 0 8.158 9.374 9.374 0 0 1 0 12.454 5.745 5.745 0 0 0 -1.633 4.081 1.75 1.75 0 0 1 -1.748 1.75z"/><path d="m78.508 128a1.75 1.75 0 0 1 -1.75-1.75 9.184 9.184 0 0 1 2.367-6.227 5.916 5.916 0 0 0 0-8.162 9.368 9.368 0 0 1 0-12.45 5.745 5.745 0 0 0 1.632-4.078 1.75 1.75 0 0 1 3.5 0 9.175 9.175 0 0 1 -2.368 6.224 5.912 5.912 0 0 0 0 8.158 9.374 9.374 0 0 1 0 12.454 5.741 5.741 0 0 0 -1.633 4.081 1.75 1.75 0 0 1 -1.748 1.75z"/></g></svg>