<svg id="Layer_2" height="512" viewBox="0 0 128 128" width="512" xmlns="http://www.w3.org/2000/svg" data-name="Layer 2"><path d="m1.75 7.958h7.75v79.992h-7.75z" fill="#86dbd5"/><path d="m9.5 16.704 11.75 10.008v42.484l-11.75 10.008z" fill="#5b6ea2"/><rect fill="#86dbd5" height="32.492" rx="4" width="50.506" x="37.747" y="31.708"/><path d="m45.747 39.708h34.506v16.492h-34.506z" fill="#5b6ea2"/><path d="m55.267 16.709h15.466v14.999h-15.466z" fill="#f7d56b"/><rect fill="#5b6ea2" height="8.751" rx="4.375" width="62.092" x="31.954" y="7.958"/><path d="m21.25 37.954h16.497v20h-16.497z" fill="#f7d56b"/><path d="m96.25 37.954h-8v20h8a10.011 10.011 0 0 1 10 10v12.072h20v-12.072a30.034 30.034 0 0 0 -30-30z" fill="#f7d56b"/><path d="m126.25 110.042a10 10 0 0 1 -20 0c0-5.523 10-20.008 10-20.008s10 14.485 10 20.008z" fill="#5b6ea2"/></svg>