<svg id="Layer_2" height="512" viewBox="0 0 128 128" width="512" xmlns="http://www.w3.org/2000/svg" data-name="Layer 2"><path d="m82.667 68.462v-41.341h-37.334v41.341h-30.833v37.334h99v-37.334z" fill="#5b6ea2"/><path d="m113.5 92.583h-39.091v-65.462a1.75 1.75 0 1 0 -3.5 0v65.462h-56.409a1.75 1.75 0 0 0 0 3.5h99a1.75 1.75 0 0 0 0-3.5z" fill="#4a5983"/><g fill="#86dbd5"><path d="m1.75 61.129h12.75v52h-12.75z"/><path d="m113.5 61.129h12.75v52h-12.75z" transform="matrix(-1 0 0 -1 239.75 174.258)"/><path d="m57.875-5.004h12.25v52h-12.25z" transform="matrix(0 1 -1 0 84.996 -43.004)"/></g></svg>