<svg id="Layer_2" height="512" viewBox="0 0 128 128" width="512" xmlns="http://www.w3.org/2000/svg" data-name="Layer 2"><path d="m26.433 45.166h32.381a0 0 0 0 1 0 0v75.113a5.308 5.308 0 0 1 -5.308 5.308h-21.765a5.308 5.308 0 0 1 -5.308-5.308v-75.113a0 0 0 0 1 0 0z" fill="#86dbd5" transform="matrix(.707 .707 -.707 .707 72.854 -5.133)"/><path d="m-.336 112.411h22.3a0 0 0 0 1 0 0v4.247a5.308 5.308 0 0 1 -5.308 5.308h-11.683a5.308 5.308 0 0 1 -5.308-5.308v-4.247a0 0 0 0 1 0 0z" fill="#5b6ea2" transform="matrix(.707 .707 -.707 .707 86.031 26.678)"/><path d="m51.511 29.306h61.989a0 0 0 0 1 0 0v21.762a10.617 10.617 0 0 1 -10.617 10.617h-40.755a10.617 10.617 0 0 1 -10.617-10.617v-21.762a0 0 0 0 1 0 0z" fill="#5b6ea2" transform="matrix(.707 .707 -.707 .707 56.335 -45.014)"/><rect fill="#f7d56b" height="9.822" rx="2.123" transform="matrix(.707 .707 -.707 .707 50.155 -59.935)" width="74.194" x="60.328" y="25.664"/><path d="m48.592 61.094h11.148v25.48h-11.148z" fill="#5b6ea2" transform="matrix(.707 .707 -.707 .707 68.073 -16.675)"/><path d="m44.088 71.968h11.148v12.74h-11.148z" fill="#4a5983" transform="matrix(.707 .707 -.707 .707 69.939 -12.171)"/><path d="m13.202 92.061h32.381v13.094h-32.381z" fill="#eef0f1" transform="matrix(.707 .707 -.707 .707 78.335 8.098)"/></svg>