<svg id="Layer_2" height="512" viewBox="0 0 128 128" width="512" xmlns="http://www.w3.org/2000/svg" data-name="Layer 2"><circle cx="64" cy="52.771" fill="#5b6ea2" r="51.021"/><circle cx="64" cy="52.771" fill="#eef0f1" r="41.021"/><rect fill="#f7d56b" height="10.417" rx="5.208" width="40" x="44" y="115.833"/><path d="m64 103.792a51.1 51.1 0 0 1 -11.833-1.392v13.436h23.666v-13.436a51.1 51.1 0 0 1 -11.833 1.392z" fill="#86dbd5"/><path d="m96.771 52.771a32.667 32.667 0 0 0 -9.471-23.02 1.8 1.8 0 0 0 -.125-.152 1.638 1.638 0 0 0 -.153-.125 32.7 32.7 0 0 0 -46.038 0 1.638 1.638 0 0 0 -.153.125 1.8 1.8 0 0 0 -.125.152 32.705 32.705 0 0 0 .004 46.049 1.767 1.767 0 0 0 .118.144 1.749 1.749 0 0 0 2.475 0l.009-.009 5.235-5.235a1.75 1.75 0 0 0 -2.475-2.475l-3.957 3.957a29 29 0 0 1 -7.328-17.66h5.613a1.75 1.75 0 0 0 0-3.5h-5.61a29.151 29.151 0 0 1 7.33-17.66l3.956 3.956a1.75 1.75 0 0 0 2.475-2.474l-3.956-3.956a29.145 29.145 0 0 1 17.659-7.33v5.61a1.75 1.75 0 0 0 3.5 0v-5.61a29.145 29.145 0 0 1 17.659 7.33l-3.956 3.956a1.75 1.75 0 1 0 2.475 2.474l3.956-3.956a29.151 29.151 0 0 1 7.33 17.66h-5.618a1.75 1.75 0 0 0 0 3.5h5.609a29 29 0 0 1 -7.329 17.66l-3.956-3.957a1.75 1.75 0 0 0 -2.471 2.475l5.247 5.243a1.749 1.749 0 0 0 2.475 0 1.849 1.849 0 0 0 .121-.147 32.541 32.541 0 0 0 9.475-23.025z" fill="#d6d8d8"/><path d="m70 75.917h-12a1.75 1.75 0 0 0 0 3.5h12a1.75 1.75 0 0 0 0-3.5z" fill="#d6d8d8"/><path d="m58 64c0-3.314 6-22.583 6-22.583s6 19.269 6 22.583a6 6 0 0 1 -12 0z" fill="#ec7887"/></svg>