<svg id="Layer_2" height="512" viewBox="0 0 128 128" width="512" xmlns="http://www.w3.org/2000/svg" data-name="Layer 2"><path d="m69.971 63.616a4.749 4.749 0 0 1 6.717 0l7.187 7.184v-33.963a4.75 4.75 0 0 1 9.5 0v-8.416a4.75 4.75 0 1 1 9.5 0v8.416a4.75 4.75 0 1 1 9.5 0v9.25a4.75 4.75 0 1 1 9.5 0v50.992h-38v-12.841l-13.9-13.9a4.751 4.751 0 0 1 -.004-6.722z" fill="#86dbd5"/><path d="m1.75 97.079h46.75v7.25h-46.75z" fill="#5b6ea2"/><path d="m58.029 63.616a4.749 4.749 0 0 0 -6.717 0l-7.187 7.184v-33.963a4.75 4.75 0 0 0 -9.5 0v-8.416a4.75 4.75 0 0 0 -9.5 0v8.416a4.75 4.75 0 0 0 -9.5 0v9.25a4.75 4.75 0 0 0 -9.5 0v50.992h38v-12.841l13.9-13.9a4.751 4.751 0 0 0 .004-6.722z" fill="#86dbd5"/><g fill="#eef0f1"><path d="m15.625 52.344a1.75 1.75 0 0 0 -1.75 1.75v10.486a1.75 1.75 0 0 0 3.5 0v-10.486a1.75 1.75 0 0 0 -1.75-1.75z"/><path d="m25.125 43.094a1.75 1.75 0 0 0 -1.75 1.75v20.156a1.75 1.75 0 0 0 3.5 0v-20.156a1.75 1.75 0 0 0 -1.75-1.75z"/><path d="m34.625 42.677a1.751 1.751 0 0 0 -1.75 1.75v20.573a1.75 1.75 0 0 0 3.5 0v-20.573a1.751 1.751 0 0 0 -1.75-1.75z"/><path d="m112.375 52.344a1.75 1.75 0 0 0 -1.75 1.75v10.486a1.75 1.75 0 0 0 3.5 0v-10.486a1.75 1.75 0 0 0 -1.75-1.75z"/><path d="m102.875 43.094a1.75 1.75 0 0 0 -1.75 1.75v20.156a1.75 1.75 0 1 0 3.5 0v-20.156a1.75 1.75 0 0 0 -1.75-1.75z"/><path d="m93.375 42.677a1.751 1.751 0 0 0 -1.75 1.75v20.573a1.75 1.75 0 1 0 3.5 0v-20.573a1.751 1.751 0 0 0 -1.75-1.75z"/></g><path d="m79.5 97.079h46.75v7.25h-46.75z" fill="#5b6ea2" transform="matrix(-1 0 0 -1 205.75 201.409)"/></svg>