<svg id="Layer_2" height="512" viewBox="0 0 128 128" width="512" xmlns="http://www.w3.org/2000/svg" data-name="Layer 2"><rect fill="#4a5983" height="12" rx="6" width="124.5" x="1.75" y="78.375"/><rect fill="#5b6ea2" height="12" rx="6" width="124.5" x="1.75" y="90.375"/><rect fill="#4a5983" height="12" rx="6" width="124.5" x="1.75" y="102.375"/><rect fill="#5b6ea2" height="12" rx="6" width="124.5" x="1.75" y="114.375"/><path d="m100.333 78.375h-12v-9.9a12.013 12.013 0 0 0 -12-12h-33.666a24 24 0 0 1 0-48h40.666v12h-40.666a12 12 0 0 0 0 24h33.666a24.027 24.027 0 0 1 24 24z" fill="#5b6ea2"/><path d="m66.5 8.479h16.833v12h-16.833z" fill="#f7d56b"/><path d="m83.333 1.896h7.75v25.167h-7.75z" fill="#ec7887"/><path d="m113.687 17.477-16.306 3.002h-6.298v-12h6.298l16.306 3.003z" fill="#f7d56b"/></svg>