<svg id="Layer_2" height="512" viewBox="0 0 128 128" width="512" xmlns="http://www.w3.org/2000/svg" data-name="Layer 2"><path d="m34.125 44.504h59.75v62.121h-59.75z" fill="#ec7887"/><path d="m26.25 117h75.5v9.25h-75.5z" fill="#5b6ea2"/><path d="m26.25 35.254h75.5v9.25h-75.5z" fill="#5b6ea2"/><path d="m48.125 10h31.75a14 14 0 0 1 14 14v11.254a0 0 0 0 1 0 0h-59.75a0 0 0 0 1 0 0v-11.254a14 14 0 0 1 14-14z" fill="#ec7887"/><path d="m44.125 35.254v-11.254a4 4 0 0 1 4-4h31.75a4 4 0 0 1 4 4v11.254z" fill="#f7d56b"/><path d="m57.25 1.75h13.5a6 6 0 0 1 6 6v2.25a0 0 0 0 1 0 0h-25.5a0 0 0 0 1 0 0v-2.25a6 6 0 0 1 6-6z" fill="#eef0f1"/><path d="m93.875 56.564h10.625v38h-10.625z" fill="#f7d56b"/><path d="m104.5 67.562h6.625a4 4 0 0 1 4 4v8a4 4 0 0 1 -4 4h-6.625a0 0 0 0 1 0 0v-16a0 0 0 0 1 0 0z" fill="#5b6ea2"/><path d="m23.5 56.565h10.625v38h-10.625z" fill="#f7d56b" transform="matrix(-1 0 0 -1 57.625 151.129)"/><path d="m12.875 67.563h6.625a4 4 0 0 1 4 4v8a4 4 0 0 1 -4 4h-6.625a0 0 0 0 1 0 0v-16a0 0 0 0 1 0 0z" fill="#5b6ea2" transform="matrix(-1 0 0 -1 36.375 151.129)"/><circle cx="64" cy="75.564" fill="#f7d56b" r="16.667"/><circle cx="64" cy="75.564" fill="#5b6ea2" r="6.667"/><path d="m34.125 106.625h59.75v10.375h-59.75z" fill="#86dbd5"/></svg>