<svg id="Layer_2" height="512" viewBox="0 0 128 128" width="512" xmlns="http://www.w3.org/2000/svg" data-name="Layer 2"><path d="m21.383 80.375h90.667v33.599h-90.667z" fill="#86dbd5"/><path d="m31.383 90.375h70.667v13.599h-70.667z" fill="#eef0f1"/><g fill="#5b6ea2"><path d="m50.717 52.782v27.593h10v-27.593a11.013 11.013 0 0 0 -11-11h-11.767v10h11.767a1 1 0 0 1 1 1z"/><path d="m72.717 32.767v47.608h10v-47.608a11.012 11.012 0 0 0 -11-11h-11.767v10h11.767a1 1 0 0 1 1 1z"/><path d="m94.717 12.75v67.625h10v-67.625a11.013 11.013 0 0 0 -11-11h-11.767v10h11.767a1 1 0 0 1 1 1z"/><path d="m28.717 72.8v7.576h10v-7.576a11.012 11.012 0 0 0 -11-11h-11.767v10h11.767a1 1 0 0 1 1 1z"/><path d="m50.717 113.974h10v12.276h-10z"/><path d="m28.717 113.974h10v12.276h-10z"/><path d="m94.717 113.974h10v12.276h-10z"/><path d="m72.717 113.974h10v12.276h-10z"/></g></svg>