<svg id="Layer_2" height="512" viewBox="0 0 128 128" width="512" xmlns="http://www.w3.org/2000/svg" data-name="Layer 2"><path d="m12.333 93.951h103.333v22.365h-103.333z" fill="#5b6ea2"/><path d="m115.667 111.06h-103.334a1.75 1.75 0 1 1 0-3.5h103.334a1.75 1.75 0 0 1 0 3.5z" fill="#4a5983"/><path d="m1.75 85.841h10.583v38.585h-10.583z" fill="#86dbd5"/><path d="m115.667 85.841h10.583v38.585h-10.583z" fill="#86dbd5" transform="matrix(-1 0 0 -1 241.917 210.266)"/><circle cx="64" cy="39.085" fill="#eef0f1" r="35.51"/><path d="m64 74.6a35.589 35.589 0 0 1 -8.236-.971v20.322h16.472v-20.326a35.589 35.589 0 0 1 -8.236.975z" fill="#4a5983"/><path d="m91.875 39.533a27.782 27.782 0 0 0 -8.054-19.576c-.037-.045-.068-.093-.11-.135s-.09-.073-.135-.11a27.818 27.818 0 0 0 -39.152 0c-.045.037-.093.068-.135.11s-.073.09-.11.135a27.818 27.818 0 0 0 0 39.156 1.626 1.626 0 0 0 .106.13 1.749 1.749 0 0 0 2.475 0l.008-.006.007-.008 4.4-4.4a1.75 1.75 0 0 0 -2.475-2.475l-3.122 3.122a24.155 24.155 0 0 1 -5.89-14.191h4.427a1.75 1.75 0 0 0 0-3.5h-4.415a24.263 24.263 0 0 1 5.889-14.191l3.122 3.122a1.75 1.75 0 1 0 2.475-2.475l-3.123-3.122a24.27 24.27 0 0 1 14.192-5.89v4.427a1.75 1.75 0 0 0 3.5 0v-4.429a24.27 24.27 0 0 1 14.192 5.89l-3.123 3.122a1.75 1.75 0 1 0 2.475 2.475l3.122-3.122a24.263 24.263 0 0 1 5.889 14.191h-4.431a1.75 1.75 0 0 0 0 3.5h4.427a24.146 24.146 0 0 1 -5.89 14.191l-3.122-3.122a1.75 1.75 0 0 0 -2.475 2.475l4.417 4.416a1.749 1.749 0 0 0 2.475 0c.039-.039.068-.084.1-.126a27.68 27.68 0 0 0 8.064-19.584z" fill="#d6d8d8"/><path d="m69.053 58.75h-10.106a1.75 1.75 0 0 0 0 3.5h10.106a1.75 1.75 0 0 0 0-3.5z" fill="#d6d8d8"/><path d="m58.947 48.99c0-2.79 5.053-19.019 5.053-19.019s5.053 16.229 5.053 19.019a5.053 5.053 0 1 1 -10.106 0z" fill="#ec7887"/></svg>