<svg id="Layer_2" height="512" viewBox="0 0 128 128" width="512" xmlns="http://www.w3.org/2000/svg" data-name="Layer 2"><path d="m118.25 35.412h-12.625v8h12.625l-.033 17.588-12.592 3.78v8.352l14.861-4.46a8.042 8.042 0 0 0 5.764-7.672v-17.588a8.009 8.009 0 0 0 -8-8z" fill="#86dbd5"/><path d="m9.75 35.412h12.625v8h-12.625l.033 17.588 12.592 3.78v8.352l-14.86-4.456a8.042 8.042 0 0 1 -5.765-7.676v-17.588a8.009 8.009 0 0 1 8-8z" fill="#86dbd5"/><path d="m105.625 82.58s-15.458 10.008-41.625 10.008-41.624-10.008-41.624-10.008v-47.168h83.249z" fill="#5b6ea2"/><g fill="#4a5983"><path d="m95.625 47.163h-63.25a1.75 1.75 0 0 1 0-3.5h63.25a1.75 1.75 0 0 1 0 3.5z"/><path d="m95.625 57.583h-63.25a1.75 1.75 0 0 1 0-3.5h63.25a1.75 1.75 0 0 1 0 3.5z"/><path d="m95.625 68h-63.25a1.75 1.75 0 0 1 0-3.5h63.25a1.75 1.75 0 0 1 0 3.5z"/><path d="m89.333 78.425h-50.666a1.75 1.75 0 0 1 0-3.5h50.666a1.75 1.75 0 0 1 0 3.5z"/></g></svg>