<svg id="Layer_2" height="512" viewBox="0 0 128 128" width="512" xmlns="http://www.w3.org/2000/svg" data-name="Layer 2"><path d="m48.667 54h30.667v20h-30.667z" fill="#5b6ea2"/><path d="m102.333 10.252v33.748a10.011 10.011 0 0 1 -10 10h-4.5v20h4.5a30.034 30.034 0 0 0 30-30v-33.748z" fill="#5b6ea2"/><path d="m40.165 54h-4.5a30.034 30.034 0 0 0 -30 30v33.748h20v-33.748a10.011 10.011 0 0 1 10-10h4.5z" fill="#5b6ea2"/><path d="m92.333 68.75h-4.5a1.75 1.75 0 1 1 0-3.5h4.5a21.274 21.274 0 0 0 21.25-21.25v-33.749a1.75 1.75 0 0 1 3.5 0v33.749a24.778 24.778 0 0 1 -24.75 24.75z" fill="#4a5983"/><path d="m79.333 68.75h-30.666a1.75 1.75 0 0 1 0-3.5h30.666a1.75 1.75 0 0 1 0 3.5z" fill="#4a5983"/><path d="m18.667 119.5a1.75 1.75 0 0 1 -1.75-1.75v-33.75a18.771 18.771 0 0 1 18.75-18.75h4.5a1.75 1.75 0 0 1 0 3.5h-4.5a15.267 15.267 0 0 0 -15.25 15.25v33.749a1.751 1.751 0 0 1 -1.75 1.751z" fill="#4a5983"/><g fill="#86dbd5"><path d="m98.417 1.75h27.833v8.502h-27.833z"/><path d="m1.75 117.748h27.833v8.502h-27.833z" transform="matrix(-1 0 0 -1 31.333 243.998)"/><path d="m27.416 59.749h34v8.502h-34z" transform="matrix(0 -1 1 0 -19.584 108.416)"/><path d="m66.584 59.749h34v8.502h-34z" transform="matrix(0 -1 1 0 19.584 147.584)"/></g></svg>