<svg id="Layer_2" height="512" viewBox="0 0 128 128" width="512" xmlns="http://www.w3.org/2000/svg" data-name="Layer 2"><circle cx="105.958" cy="87.005" fill="#f7d56b" r="11.74"/><path d="m105.958 91.744a4.739 4.739 0 1 1 4.74-4.739 4.744 4.744 0 0 1 -4.74 4.739z" fill="#5b6ea2"/><circle cx="24.834" cy="87.005" fill="#f7d56b" r="11.74"/><path d="m24.834 91.744a4.739 4.739 0 1 1 4.74-4.739 4.744 4.744 0 0 1 -4.74 4.739z" fill="#5b6ea2"/><path d="m106.25 48.193h-20.583v38.812h8.552a11.74 11.74 0 0 1 23.479 0h8.552v-18.812a20 20 0 0 0 -20-20z" fill="#eef0f1"/><path d="m1.75 29.255v57.75h11.35a11.74 11.74 0 0 1 23.479 0h49.088v-57.75z" fill="#5b6ea2"/><path d="m42.88 79.005a19.73 19.73 0 0 0 -33.13-4.719v-37.031h67.917v41.75z" fill="#eef0f1"/><path d="m58.67 62.456-4.8-1.409-1.409-4.795 8.282-8.282a11.212 11.212 0 0 0 -11.843 2.577l-.525.525a10.935 10.935 0 0 0 -2.755 10.828l-9.168 9.168a19.845 19.845 0 0 1 6.428 7.936h.438l9.7-9.7a10.935 10.935 0 0 0 10.832-2.761l.525-.525a11.208 11.208 0 0 0 2.577-11.844z" fill="#86dbd5"/><g fill="#5b6ea2"><path d="m92.667 65.568h26.316a13.022 13.022 0 0 0 -12.733-10.375h-13.583z"/><path d="m28.382 54.081a5.313 5.313 0 0 1 -10.626 0c0-2.934 5.313-8.819 5.313-8.819s5.313 5.885 5.313 8.819z"/></g></svg>