<svg id="Layer_2" height="512" viewBox="0 0 128 128" width="512" xmlns="http://www.w3.org/2000/svg" data-name="Layer 2"><path d="m39.481 45.242a21.9 21.9 0 0 1 -.505-4.677v-1.306a6.726 6.726 0 0 0 -.926-.071 6.81 6.81 0 1 0 2.936 12.947z" fill="#f79e8c"/><path d="m89.7 39.188a6.058 6.058 0 0 0 -.678.052v1.328a22.226 22.226 0 0 1 -.5 4.674l-1.51 6.891-.021.1a6.732 6.732 0 0 0 2.709.578 6.81 6.81 0 0 0 0-13.619z" fill="#f79e8c"/><path d="m26.875 88.792c-.632.121-1.259.255-1.875.424a22.421 22.421 0 0 0 -16.5 21.617v15.417h18.375z" fill="#fbcfc6"/><path d="m103 89.216c-.616-.169-1.243-.3-1.875-.424v37.458h18.375v-15.417a22.421 22.421 0 0 0 -16.5-21.617z" fill="#fbcfc6"/><path d="m38.978 37.64v2.928a22.226 22.226 0 0 0 .5 4.674l1.51 6.891 1.59 7.295c.14.626.3 1.237.486 1.841s.4 1.185.633 1.767a21.889 21.889 0 0 0 7.303 9.355l-1.1 8.576a7.1 7.1 0 0 1 -5.843 6 24.118 24.118 0 0 0 39.655-.042 7.107 7.107 0 0 1 -5.612-5.958l-1.1-8.576a21.889 21.889 0 0 0 7.3-9.355c.236-.582.449-1.171.633-1.767s.346-1.215.486-1.841l1.59-7.295 1.51-6.891a22.226 22.226 0 0 0 .5-4.674v-2.928z" fill="#fbcfc6"/><g fill="#5b6ea2"><path d="m66.207 53.4h-1.957a3.43 3.43 0 0 1 -3.392-3.945l.709-4.687a1.75 1.75 0 1 1 3.461.524l-.7 4.608h1.877a1.75 1.75 0 0 1 0 3.5z"/><path d="m53 36.25a4.167 4.167 0 1 0 4.167 4.167 4.172 4.172 0 0 0 -4.167-4.167z"/><path d="m73.6 36.25a4.167 4.167 0 1 0 4.166 4.167 4.171 4.171 0 0 0 -4.166-4.167z"/><path d="m63.875 63.5a10.373 10.373 0 0 1 -8.028-3.346 1.75 1.75 0 0 1 2.7-2.224 6.987 6.987 0 0 0 5.328 2.07 6.987 6.987 0 0 0 5.325-2.069 1.75 1.75 0 1 1 2.7 2.225 10.371 10.371 0 0 1 -8.025 3.344z"/></g><path d="m54.008 1.75h19.984a15 15 0 0 1 15 15v9a0 0 0 0 1 0 0h-49.984a0 0 0 0 1 0 0v-9a15 15 0 0 1 15-15z" fill="#eef0f1"/><path d="m92.877 37.64h-57.754a4 4 0 0 1 -2.392-7.206l6.277-4.684h49.984l6.277 4.684a4 4 0 0 1 -2.392 7.206z" fill="#f7d56b"/><path d="m101.125 88.792c-2.94-.564-6.017-.689-8.963-.979l-.787-.077v21.264h-54.75v-21.264l-.787.077c-2.947.29-6.023.415-8.963.979v37.458h74.25z" fill="#5b6ea2"/><path d="m84.354 87.046c-.217-.022-.425-.079-.637-.121a24.118 24.118 0 0 1 -39.655.042c-.14.023-.274.065-.416.079l-7.021.69v21.264h54.75v-21.264z" fill="#86dbd5"/><path d="m68.167 14.833a4.167 4.167 0 0 1 -8.334 0c0-2.3 4.167-6.916 4.167-6.916s4.167 4.615 4.167 6.916z" fill="#5b6ea2"/></svg>