<svg id="Layer_2" height="512" viewBox="0 0 128 128" width="512" xmlns="http://www.w3.org/2000/svg" data-name="Layer 2"><path d="m70.332 72.992h-12.664l-1.768-62.912a8.1 8.1 0 0 1 8.1-8.33 8.1 8.1 0 0 1 8.1 8.33z" fill="#5b6ea2"/><path d="m97.375 118.667h-66.75v-11.99a23.884 23.884 0 0 1 11.786-20.593 23.894 23.894 0 0 0 8.382-8.305l2.872-4.787h20.67l2.872 4.787a23.894 23.894 0 0 0 8.382 8.305 23.884 23.884 0 0 1 11.786 20.593z" fill="#ec7887"/><rect fill="#f7d56b" height="7.583" rx="3.792" width="80.667" x="23.667" y="118.667"/></svg>