<svg id="Layer_2" height="512" viewBox="0 0 128 128" width="512" xmlns="http://www.w3.org/2000/svg" data-name="Layer 2"><path d="m12.667 30.171h102.666l10.917 8.73v40.032l-10.917 8.73h-102.666z" fill="#5b6ea2"/><path d="m5.75 39.039h6.917a0 0 0 0 1 0 0v39.756a0 0 0 0 1 0 0h-6.917a4 4 0 0 1 -4-4v-31.756a4 4 0 0 1 4-4z" fill="#86dbd5"/><path d="m25.5 30.171h78.75v57.492h-78.75z" fill="#f7d56b"/><g fill="#eef0f1"><path d="m34.75 41.911h60.25a1.75 1.75 0 0 0 0-3.5h-60.25a1.75 1.75 0 0 0 0 3.5z"/><path d="m95 47.789h-60.25a1.75 1.75 0 0 0 0 3.5h60.25a1.75 1.75 0 0 0 0-3.5z"/><path d="m95 57.167h-60.25a1.75 1.75 0 0 0 0 3.5h60.25a1.75 1.75 0 0 0 0-3.5z"/><path d="m95 66.545h-60.25a1.75 1.75 0 0 0 0 3.5h60.25a1.75 1.75 0 0 0 0-3.5z"/><path d="m95 75.923h-60.25a1.75 1.75 0 0 0 0 3.5h60.25a1.75 1.75 0 0 0 0-3.5z"/><path d="m25.5 87.663h12.167v15.921h-12.167z"/><path d="m92.083 87.663h12.167v15.921h-12.167z"/></g><rect fill="#86dbd5" height="11" rx="5.5" width="97" x="15.5" y="103.583"/><path d="m54.937 13.417h18.125a7 7 0 0 1 7 7v9.754a0 0 0 0 1 0 0h-32.125a0 0 0 0 1 0 0v-9.754a7 7 0 0 1 7-7z" fill="#eef0f1"/><path d="m70.437 23.544h-12.875a1.75 1.75 0 0 1 0-3.5h12.875a1.75 1.75 0 0 1 0 3.5z" fill="#d6d8d8"/></svg>