<svg id="Layer_2" height="512" viewBox="0 0 128 128" width="512" xmlns="http://www.w3.org/2000/svg" data-name="Layer 2"><path d="m92.188 21.669h-56.376l-4.004-3.454v-13.011l4.004-3.454h56.376l4.004 3.454v13.011z" fill="#5b6ea2"/><path d="m80.491 48.344-31.433 8.4a3 3 0 0 1 -3.775-2.9v-6.283a3 3 0 0 1 2.226-2.9l31.433-8.4a3 3 0 0 1 3.775 2.9v6.289a3 3 0 0 1 -2.226 2.894z" fill="#d6d8d8"/><path d="m80.491 74.848-31.433 8.4a3 3 0 0 1 -3.775-2.9v-6.283a3 3 0 0 1 2.226-2.9l31.433-8.4a3 3 0 0 1 3.775 2.9v6.285a3 3 0 0 1 -2.226 2.898z" fill="#d6d8d8"/><path d="m80.491 101.352-31.433 8.4a3 3 0 0 1 -3.775-2.9v-6.289a3 3 0 0 1 2.226-2.9l31.433-8.4a3 3 0 0 1 3.775 2.9v6.289a3 3 0 0 1 -2.226 2.9z" fill="#d6d8d8"/><g fill="#eef0f1"><path d="m53.667 69.52 20.666-5.525v-14.004l-20.666 5.525z"/><path d="m74.333 76.495-20.666 5.525v14.004l20.666-5.525z"/><path d="m74.333 37.491v-15.822h-20.666v21.347z"/><path d="m53.667 108.524v17.726h20.666v-23.251z"/></g></svg>