<svg id="Layer_2" height="512" viewBox="0 0 128 128" width="512" xmlns="http://www.w3.org/2000/svg" data-name="Layer 2"><path d="m45.744 56.086h41.077v11.263h-41.077z" fill="#86dbd5" transform="matrix(.707 .707 -.707 .707 63.055 -28.792)"/><path d="m126.25 7.372-5.622-5.622-13.037 7.728-.158 5.467-39.98 39.98 5.622 5.622 39.98-39.98 5.467-.158z" fill="#f7d56b"/><path d="m20.141 124.724 50.592-50.592-16.865-16.865-50.592 50.592a7.45 7.45 0 0 1 -1.526 8.316l10.075 10.075a7.45 7.45 0 0 1 8.316-1.526z" fill="#5b6ea2"/><path d="m8.55 87.481h55.937v8.001h-55.937z" fill="#4a5983" transform="matrix(.707 -.707 .707 .707 -53.991 52.617)"/></svg>