<svg id="Layer_2" height="512" viewBox="0 0 128 128" width="512" xmlns="http://www.w3.org/2000/svg" data-name="Layer 2"><rect fill="#86dbd5" height="7.983" rx="3.991" width="92.25" x="1.75" y="80.582"/><path d="m30.75 46.641h34.25a22 22 0 0 1 22 22v11.941a0 0 0 0 1 0 0h-78.25a0 0 0 0 1 0 0v-11.941a22 22 0 0 1 22-22z" fill="#5b6ea2"/><rect fill="#86dbd5" height="45.814" rx="5.189" width="10.377" x="115.873" y="1.75"/><g fill="#5b6ea2"><path d="m20.753 104.225a5 5 0 0 1 -10 0c0-2.762 5-10 5-10s5 7.238 5 10z"/><path d="m52.875 104.225a5 5 0 0 1 -10 0c0-2.762 5-10 5-10s5 7.238 5 10z"/><path d="m37.151 121.25a5 5 0 0 1 -10 0c0-2.761 5-10 5-10s5 7.239 5 10z"/><path d="m58.6 121.25a5 5 0 0 0 10 0c0-2.761-5-10-5-10s-5 7.239-5 10z"/><path d="m85 104.225a5 5 0 0 1 -10 0c0-2.762 5-10 5-10s5 7.238 5 10z"/></g><path d="m52.875 46.641h-10v-10.984a16.019 16.019 0 0 1 16-16h57v10h-57a6.007 6.007 0 0 0 -6 6z" fill="#f7d56b"/></svg>