<svg id="Layer_2" height="512" viewBox="0 0 128 128" width="512" xmlns="http://www.w3.org/2000/svg" data-name="Layer 2"><g fill="#5b6ea2"><path d="m64 27.063a36.76 36.76 0 0 1 17.333 4.318v-20.881h-34.666v20.881a36.76 36.76 0 0 1 17.333-4.318z"/><path d="m64 100.938a36.761 36.761 0 0 1 -17.333-4.319v20.881h34.666v-20.881a36.761 36.761 0 0 1 -17.333 4.319z"/><path d="m67.1 90.739a26.907 26.907 0 0 0 12.887-5.1l-15.987-15.982-15.984 15.984a26.992 26.992 0 0 0 19.084 5.098z"/><path d="m60.9 37.261a26.907 26.907 0 0 0 -12.887 5.1l15.987 15.982 15.984-15.984a26.992 26.992 0 0 0 -19.084-5.098z"/><path d="m58.343 64-11.676-11.676v23.352z"/><path d="m69.657 64 11.676 11.676v-23.352z"/></g><path d="m39.417 1.75h49.167v8.75h-49.167z" fill="#86dbd5"/><path d="m39.417 117.5h49.167v8.75h-49.167z" fill="#86dbd5"/><path d="m64 27.063a36.938 36.938 0 1 0 36.937 36.937 36.938 36.938 0 0 0 -36.937-36.937zm16 15.281-16 16-16-16a26.875 26.875 0 0 1 32 0zm-42.938 21.656a26.794 26.794 0 0 1 5.282-16l16 16-16 16a26.794 26.794 0 0 1 -5.282-16zm10.938 21.656 16-16 16 16a26.871 26.871 0 0 1 -32 0zm37.656-5.656-16-16 16-16a26.875 26.875 0 0 1 0 32z" fill="#f7d56b"/></svg>