<svg id="Layer_2" height="512" viewBox="0 0 128 128" width="512" xmlns="http://www.w3.org/2000/svg" data-name="Layer 2"><path d="m1.646 56.412h99.12v40.763h-99.12z" fill="#5b6ea2" transform="matrix(.707 -.707 .707 .707 -39.304 58.701)"/><path d="m63.439 32.825h53.017v10.456h-53.017z" fill="#86dbd5" transform="matrix(.707 .707 -.707 .707 53.252 -52.457)"/><path d="m20.421 70.821h73.507v23.883h-73.507z" fill="#f7d56b" transform="matrix(.707 -.707 .707 .707 -41.776 64.669)"/><path d="m105.032 32.637 21.218-26.881-4.006-4.006-26.881 21.218-2.327-2.327a2 2 0 0 0 -2.829 0l-5.14 5.139 5.158 5.158 6.837 6.837 5.158 5.158 5.139-5.14a2 2 0 0 0 0-2.829z" fill="#eef0f1"/></svg>