<svg id="Layer_2" height="512" viewBox="0 0 128 128" width="512" xmlns="http://www.w3.org/2000/svg" data-name="Layer 2"><rect fill="#ec7887" height="10.667" rx="5.333" width="124.5" x="1.75" y="70.667"/><path d="m8.5 81.333h111v44.917h-111z" fill="#f7d56b"/><path d="m69.004 91.333h40.496v34.917h-40.496z" fill="#5b6ea2"/><path d="m18.5 91.333h40.496v34.917h-40.496z" fill="#5b6ea2"/><path d="m79.012 110.833h7.246v15.417h-7.246z" fill="#4a5983"/><path d="m41.742 110.833h7.246v15.417h-7.246z" fill="#4a5983" transform="matrix(-1 0 0 -1 90.73 237.083)"/><path d="m24.5 47.833h79a0 0 0 0 1 0 0v7.833a15 15 0 0 1 -15 15h-49a15 15 0 0 1 -15-15v-7.833a0 0 0 0 1 0 0z" fill="#eef0f1"/><path d="m111.667 10.124h7.833v60.542h-7.833z" fill="#5b6ea2"/><g fill="#86dbd5"><path d="m104.917 1.75h21.333v8.374h-21.333z"/><path d="m87.66 35.554-6.654-4.441a24.178 24.178 0 0 1 20.151-10.78h10.51v8h-10.51a16.2 16.2 0 0 0 -13.497 7.221z"/></g></svg>