<svg id="Layer_2" height="512" viewBox="0 0 128 128" width="512" xmlns="http://www.w3.org/2000/svg" data-name="Layer 2"><path d="m1.75 1.75h124.5v12.25h-124.5z" fill="#5b6ea2"/><path d="m87.492 33h-46.984l-10.008-19h67z" fill="#86dbd5"/><path d="m49.167 23.5h29.667v9.5h-29.667z" fill="#eef0f1"/><path d="m58.087 33h11.826v25.898h-11.826z" fill="#f7d56b"/><path d="m48.708 58.9h30.584a0 0 0 0 1 0 0v6a4 4 0 0 1 -4 4h-22.584a4 4 0 0 1 -4-4v-6a0 0 0 0 1 0 0z" fill="#ec7887"/><g fill="#5b6ea2"><path d="m70.219 120.031a6.219 6.219 0 1 1 -12.438 0c0-3.434 6.219-10.323 6.219-10.323s6.219 6.892 6.219 10.323z"/><path d="m12.366 124.429a6.219 6.219 0 0 1 -8.795-8.8c2.429-2.428 11.7-2.9 11.7-2.9s-.477 9.271-2.905 11.7z"/><path d="m115.634 124.429a6.219 6.219 0 0 0 8.8-8.8c-2.429-2.428-11.7-2.9-11.7-2.9s.472 9.271 2.9 11.7z"/><path d="m77.287 78.959a1.742 1.742 0 0 1 -1.238-.514l-1.06-1.061a1.75 1.75 0 0 1 2.477-2.473l1.059 1.062a1.75 1.75 0 0 1 -1.238 2.986z"/><path d="m97.087 98.8a1.74 1.74 0 0 1 -1.238-.514l-2.285-2.289a1.75 1.75 0 0 1 2.477-2.472l2.284 2.289a1.75 1.75 0 0 1 -1.238 2.986zm-9.9-9.918a1.743 1.743 0 0 1 -1.239-.514l-2.284-2.289a1.75 1.75 0 0 1 2.477-2.479l2.284 2.289a1.75 1.75 0 0 1 -1.238 2.986z"/><path d="m105.763 107.487a1.746 1.746 0 0 1 -1.239-.513l-1.059-1.062a1.75 1.75 0 0 1 2.476-2.473l1.059 1.061a1.749 1.749 0 0 1 -1.238 2.986z"/><path d="m64.013 74.4a1.749 1.749 0 0 1 1.749 1.749v1.5a1.75 1.75 0 0 1 -1.75 1.75 1.749 1.749 0 0 1 -1.749-1.749v-1.5a1.75 1.75 0 0 1 1.75-1.75z"/><path d="m64 84.993a1.748 1.748 0 0 1 1.748 1.748v3.413a1.75 1.75 0 0 1 -1.748 1.746 1.748 1.748 0 0 1 -1.748-1.748v-3.409a1.75 1.75 0 0 1 1.748-1.75z"/><path d="m63.992 97.5a1.749 1.749 0 0 1 1.749 1.749v1.5a1.75 1.75 0 0 1 -1.75 1.75 1.749 1.749 0 0 1 -1.749-1.749v-1.5a1.75 1.75 0 0 1 1.75-1.75z"/><path d="m50.713 78.959a1.75 1.75 0 0 1 -1.238-2.986l1.059-1.062a1.75 1.75 0 1 1 2.477 2.473l-1.06 1.061a1.742 1.742 0 0 1 -1.238.514z"/><path d="m30.913 98.8a1.75 1.75 0 0 1 -1.238-2.986l2.284-2.289a1.75 1.75 0 0 1 2.477 2.472l-2.285 2.289a1.74 1.74 0 0 1 -1.238.514zm9.9-9.918a1.75 1.75 0 0 1 -1.238-2.986l2.284-2.296a1.75 1.75 0 0 1 2.477 2.472l-2.284 2.289a1.743 1.743 0 0 1 -1.239.517z"/><path d="m22.237 107.487a1.749 1.749 0 0 1 -1.237-2.987l1.06-1.062a1.75 1.75 0 0 1 2.476 2.473l-1.059 1.062a1.746 1.746 0 0 1 -1.24.514z"/></g></svg>