<svg id="Layer_2" height="512" viewBox="0 0 128 128" width="512" xmlns="http://www.w3.org/2000/svg" data-name="Layer 2"><path d="m58 64.9a27.334 27.334 0 0 0 -27.333-27.336h-1.584a27.334 27.334 0 0 0 -27.333 27.336v18.331a9 9 0 0 0 9 9h62.75v-17.325z" fill="#f7d56b"/><path d="m73.5 83.731h45.166v8.5h-45.166z" fill="#eef0f1"/><path d="m118.666 77.447h7.584v14.784h-7.584z" fill="#5b6ea2"/><path d="m29.083 82.231a17.334 17.334 0 0 1 0-34.667h1.584a17.334 17.334 0 0 1 0 34.667z" fill="#ec7887"/><path d="m29.083 72.231a7.334 7.334 0 0 1 0-14.667h1.584a7.334 7.334 0 0 1 0 14.667z" fill="#eef0f1"/><path d="m53.849 50.421a5.14 5.14 0 0 0 3.99-8.382 36.291 36.291 0 0 0 -5.106-5.106 5.141 5.141 0 0 0 -8.382 3.991v.317a27.466 27.466 0 0 1 9.498 9.18z" fill="#5b6ea2"/></svg>