<svg id="Layer_2" height="512" viewBox="0 0 128 128" width="512" xmlns="http://www.w3.org/2000/svg" data-name="Layer 2"><rect fill="#86dbd5" height="11.708" rx="5.854" width="85.667" x="21.167" y="1.75"/><path d="m29 13.458h70a0 0 0 0 1 0 0v40.089a4 4 0 0 1 -4 4h-62a4 4 0 0 1 -4-4v-40.089a0 0 0 0 1 0 0z" fill="#5b6ea2"/><path d="m34.667 57.547h58.667v11.208h-58.667z" fill="#eef0f1"/><path d="m14.43 89.339a20 20 0 0 0 20 20h59.14a20 20 0 0 0 20-20v-10h-99.14z" fill="#5b6ea2"/><path d="m107.57 68.756h-87.14a6 6 0 0 0 -6 6v4.583h99.14v-4.583a6 6 0 0 0 -6-6z" fill="#86dbd5"/><path d="m46.25 109.339h35.5v16.911h-35.5z" fill="#f7d56b"/><path d="m79.875 29.771h-10.688a1.75 1.75 0 0 1 0-3.5h10.688a1.75 1.75 0 0 1 0 3.5z" fill="#4a5983"/><path d="m87 32.583h-5.125a2 2 0 0 1 -2-2v-5.125a2 2 0 0 1 2-2h5.125a2 2 0 0 1 2 2v5.125a2 2 0 0 1 -2 2z" fill="#eef0f1"/></svg>