<svg id="Layer_2" height="512" viewBox="0 0 128 128" width="512" xmlns="http://www.w3.org/2000/svg" data-name="Layer 2"><path d="m9.375 58.242h109.25v38.425h-109.25z" fill="#86dbd5"/><path d="m9.75 42.368h108.5a8 8 0 0 1 8 8v4.874a3 3 0 0 1 -3 3h-118.5a3 3 0 0 1 -3-3v-4.874a8 8 0 0 1 8-8z" fill="#5b6ea2"/><path d="m44 58.242h40.154v8.984h-40.154z" fill="#eef0f1"/><path d="m94.75 58.242h10.5v20.258h-10.5z" fill="#eef0f1"/><path d="m94.75 66.621h10.5v3.5h-10.5z" fill="#d6d8d8"/><path d="m22.75 58.242h10.5v20.258h-10.5z" fill="#eef0f1" transform="matrix(-1 0 0 -1 56 136.742)"/><path d="m22.75 66.621h10.5v3.5h-10.5z" fill="#d6d8d8"/><path d="m9.375 96.667v3.083a10 10 0 0 0 10 10h89.25a10 10 0 0 0 10-10v-3.083z" fill="#5b6ea2"/><path d="m31.835 42.368 4.632-11.7a6.962 6.962 0 0 1 6.508-4.422h42.05a6.964 6.964 0 0 1 6.509 4.422l4.632 11.7h8.6l-5.8-14.641a14.921 14.921 0 0 0 -13.941-9.477h-42.05a14.918 14.918 0 0 0 -13.946 9.477l-5.8 14.641z" fill="#f7d56b"/></svg>