<svg id="Layer_2" height="512" viewBox="0 0 128 128" width="512" xmlns="http://www.w3.org/2000/svg" data-name="Layer 2"><path d="m42 27.755h44a8 8 0 0 1 8 8v54.5a20 20 0 0 1 -20 20h-20a20 20 0 0 1 -20-20v-54.5a8 8 0 0 1 8-8z" fill="#5b6ea2"/><path d="m54 92.247a10.011 10.011 0 0 1 -10-10v-44.492h40v44.492a10.011 10.011 0 0 1 -10 10z" fill="#eef0f1"/><path d="m57.583 110.253h12.834a0 0 0 0 1 0 0v9.58a6.417 6.417 0 0 1 -6.417 6.417 6.417 6.417 0 0 1 -6.417-6.417v-9.58a0 0 0 0 1 0 0z" fill="#86dbd5"/><rect fill="#5b6ea2" height="11.292" rx="4" width="18.667" x="54.667" y="8.959"/><g fill="#f7d56b"><path d="m60.042 20.251h7.917v7.209h-7.917z"/><path d="m60.042 1.75h7.917v7.209h-7.917z"/><path d="m64 81.917c-7.811 0-14.782 1.48-19.367 3.8a10.007 10.007 0 0 0 9.367 6.53h20a10.007 10.007 0 0 0 9.367-6.531c-4.585-2.316-11.556-3.799-19.367-3.799z"/></g><path d="m44 11.605h10.667v6h-10.667z" fill="#86dbd5"/></svg>