<svg id="Layer_2" height="512" viewBox="0 0 128 128" width="512" xmlns="http://www.w3.org/2000/svg" data-name="Layer 2"><path d="m48 1.75h32v11.75h-32z" fill="#5b6ea2"/><path d="m75.667 20.284v-6.784h-23.334v6.784a16.853 16.853 0 0 1 -5.416 12.379 16.852 16.852 0 0 0 -5.417 12.378v76.209a5 5 0 0 0 5 5h35a5 5 0 0 0 5-5v-76.209a16.852 16.852 0 0 0 -5.417-12.378 16.853 16.853 0 0 1 -5.416-12.379z" fill="#eef0f1"/><g fill="#4a5983"><path d="m53.92 1.75h3.5v11.75h-3.5z"/><path d="m62.25 1.75h3.5v11.75h-3.5z"/><path d="m70.58 1.75h3.5v11.75h-3.5z"/></g><path d="m41.5 53.667h45v59.333h-45z" fill="#86dbd5"/><path d="m74.119 86.673a10.119 10.119 0 0 1 -20.238 0c0-5.589 10.119-16.8 10.119-16.8s10.119 11.211 10.119 16.8z" fill="#5b6ea2"/></svg>