<svg id="Layer_2" height="512" viewBox="0 0 128 128" width="512" xmlns="http://www.w3.org/2000/svg" data-name="Layer 2"><path d="m22.333 1.75h83.333v15.583h-83.333z" fill="#5b6ea2"/><path d="m41.5 17.333h45v8.792h-45z" fill="#f7d56b"/><path d="m46.281 26.126h35.438a0 0 0 0 1 0 0v92.124a8 8 0 0 1 -8 8h-19.438a8 8 0 0 1 -8-8v-92.124a0 0 0 0 1 0 0z" fill="#86dbd5"/><path d="m71.362 74.221a7.362 7.362 0 1 1 -14.724 0c0-4.066 7.362-12.221 7.362-12.221s7.362 8.155 7.362 12.221z" fill="#5b6ea2"/><path d="m21.925 92.248h24.357v14.25h-24.357z" fill="#5b6ea2"/><rect fill="#86dbd5" height="31.083" rx="2" width="10.167" x="11.758" y="83.831"/><path d="m29.811 92.248h8.583v14.25h-8.583z" fill="#f7d56b"/><path d="m1.75 92.248h10.008v14.25h-10.008z" fill="#5b6ea2"/><path d="m81.719 37.086h24.357v14.25h-24.357z" fill="#5b6ea2" transform="matrix(-1 0 0 -1 187.794 88.421)"/><rect fill="#86dbd5" height="31.083" rx="2" transform="matrix(-1 0 0 -1 222.317 88.421)" width="10.167" x="106.075" y="28.669"/><path d="m89.605 37.086h8.583v14.25h-8.583z" fill="#f7d56b" transform="matrix(-1 0 0 -1 187.794 88.421)"/><path d="m116.242 37.086h10.008v14.25h-10.008z" fill="#5b6ea2" transform="matrix(-1 0 0 -1 242.492 88.421)"/></svg>