<svg id="Layer_2" height="512" viewBox="0 0 128 128" width="512" xmlns="http://www.w3.org/2000/svg" data-name="Layer 2"><path d="m96 4.447v87.858a4.979 4.979 0 0 1 -3.507 4.772l-20.013 6.26h-16.96l-20.013-6.26a4.979 4.979 0 0 1 -3.507-4.772v-87.858a19.978 19.978 0 0 0 -10 17.3v70.558a15 15 0 0 0 10.522 14.316l21.47 6.716h20.016l21.47-6.716a15 15 0 0 0 10.522-14.316v-70.555a19.978 19.978 0 0 0 -10-17.303z" fill="#5b6ea2"/><path d="m35.507 97.077 20.013 6.26h16.96l20.013-6.26a4.979 4.979 0 0 0 3.507-4.772v-87.858a19.886 19.886 0 0 0 -10-2.7h-44a19.886 19.886 0 0 0 -10 2.7v87.858a4.979 4.979 0 0 0 3.507 4.772z" fill="#eef0f1"/><path d="m42 28.985v-27.235h44v27.235a22 22 0 0 1 -22 22 22 22 0 0 1 -22-22z" fill="#f7d56b"/><path d="m38 108.335v17.915h14v-13.536z" fill="#86dbd5"/><path d="m76 112.714v13.536h14v-17.915z" fill="#86dbd5"/><circle cx="64.312" cy="28.673" fill="#ec7887" r="12.312"/><path d="m44 61.895h40v10.215h-40z" fill="#86dbd5"/><g fill="#d6d8d8"><path d="m44 82.363a1.75 1.75 0 0 1 -.009-3.5l40-.226a1.75 1.75 0 0 1 .02 3.5l-40 .226z"/><path d="m50 92.051a1.75 1.75 0 0 1 -.01-3.5l28-.158a1.75 1.75 0 1 1 .02 3.5l-28 .158z"/></g></svg>