<svg id="Layer_2" height="512" viewBox="0 0 128 128" width="512" xmlns="http://www.w3.org/2000/svg" data-name="Layer 2"><path d="m116.25 54.5h-21.684a32.012 32.012 0 0 0 -61.132 0h-21.684v19h21.684a32.012 32.012 0 0 0 61.132 0h21.684z" fill="#5b6ea2"/><path d="m116.25 65.75h-27.25a1.75 1.75 0 0 1 0-3.5h27.25a1.75 1.75 0 0 1 0 3.5z" fill="#4a5983"/><path d="m39 65.75h-27.25a1.75 1.75 0 0 1 0-3.5h27.25a1.75 1.75 0 0 1 0 3.5z" fill="#4a5983"/><circle cx="64" cy="64" fill="#eef0f1" r="25"/><rect fill="#86dbd5" height="33.667" rx="3" width="10" x="116.25" y="47.167"/><rect fill="#86dbd5" height="33.667" rx="3" transform="matrix(-1 0 0 -1 13.5 128)" width="10" x="1.75" y="47.167"/><path d="m47 64a16.932 16.932 0 0 0 .753 5h32.494a16.977 16.977 0 0 0 0-10h-32.494a16.932 16.932 0 0 0 -.753 5z" fill="#f7d56b"/><path d="m56.25 59h15.5v10h-15.5z" fill="#ec7887"/><g fill="#d6d8d8"><path d="m77.437 77.688h-26.75a1.75 1.75 0 0 1 0-3.5h26.75a1.75 1.75 0 0 1 0 3.5z"/><path d="m68.708 83.688h-9.291a1.75 1.75 0 0 1 0-3.5h9.291a1.75 1.75 0 0 1 0 3.5z"/><path d="m77.437 53.813h-26.75a1.75 1.75 0 0 1 0-3.5h26.75a1.75 1.75 0 0 1 0 3.5z"/><path d="m68.708 47.813h-9.291a1.75 1.75 0 0 1 0-3.5h9.291a1.75 1.75 0 0 1 0 3.5z"/></g></svg>