<svg id="Layer_2" height="512" viewBox="0 0 128 128" width="512" xmlns="http://www.w3.org/2000/svg" data-name="Layer 2"><rect fill="#86dbd5" height="11.74" rx="3" width="81" x="14.625" y="58.099"/><g fill="#5b6ea2"><path d="m74.458 69.839h11.667v56.38h-11.667z"/><path d="m24.125 69.839h11.667v56.38h-11.667z" transform="matrix(-1 0 0 -1 59.917 196.057)"/><path d="m24.125 16.731h62v41.247h-62z"/></g><path d="m34.125 26.73h42v21.248h-42z" fill="#eef0f1"/><path d="m24.125 16.731h62l-30.938-15.012z" fill="#86dbd5"/><path d="m35.792 92.862h38.667v10.333h-38.667z" fill="#f7d56b"/><path d="m49.292 69.839h11.667v23.023h-11.667z" fill="#5b6ea2"/><path d="m49.292 103.195h11.667v23.023h-11.667z" fill="#5b6ea2"/><path d="m113.375 126.281h-8v-75.062a6.006 6.006 0 0 0 -6-6h-13.25v-8h13.25a14.015 14.015 0 0 1 14 14z" fill="#f7d56b"/></svg>