<svg id="Layer_2" height="512" viewBox="0 0 128 128" width="512" xmlns="http://www.w3.org/2000/svg" data-name="Layer 2"><path d="m73.551 78.549h-19.1a36.008 36.008 0 0 1 -19.7-32.1v-29.2a7 7 0 0 1 7-7h44.5a7 7 0 0 1 7 7v29.2a36.008 36.008 0 0 1 -19.7 32.1z" fill="#5b6ea2"/><g fill="#f7d56b"><path d="m55.333 1.75h17.333v8.494h-17.333z"/><path d="m88.831 30.141h17.333v8.494h-17.333z" transform="matrix(0 1 -1 0 131.886 -63.109)"/><path d="m21.836 30.141h17.333v8.494h-17.333z" transform="matrix(0 1 -1 0 64.891 3.886)"/></g><path d="m44.75 20.245h38.5v22.811h-38.5z" fill="#eef0f1"/><path d="m83.25 54.333h-38.5a1.75 1.75 0 0 1 0-3.5h38.5a1.75 1.75 0 0 1 0 3.5z" fill="#4a5983"/><path d="m80.225 62.316h-32.45a1.75 1.75 0 0 1 0-3.5h32.45a1.75 1.75 0 0 1 0 3.5z" fill="#4a5983"/><path d="m70.952 70.3h-13.9a1.75 1.75 0 0 1 0-3.5h13.9a1.75 1.75 0 0 1 0 3.5z" fill="#4a5983"/><path d="m26.875 88.792c-.632.121-1.259.255-1.875.424a22.421 22.421 0 0 0 -16.5 21.617v15.417h18.375z" fill="#fbcfc6"/><path d="m103 89.216c-.616-.169-1.243-.3-1.875-.424v37.458h18.375v-15.417a22.421 22.421 0 0 0 -16.5-21.617z" fill="#fbcfc6"/><path d="m101.125 88.792c-2.94-.564-6.017-.689-8.963-.979l-.787-.077v21.264h-54.75v-21.264l-.787.077c-2.947.29-6.023.415-8.963.979v37.458h74.25z" fill="#5b6ea2"/><path d="m84.354 87.046c-.217-.022-.425-.079-.637-.121a24.118 24.118 0 0 1 -39.655.042c-.14.023-.274.065-.416.079l-7.021.69v21.264h54.75v-21.264z" fill="#86dbd5"/><path d="m78.1 80.967-.608-4.758a35.96 35.96 0 0 1 -3.936 2.34h-19.1a35.96 35.96 0 0 1 -3.936-2.34l-.608 4.758a7.1 7.1 0 0 1 -5.843 6 24.118 24.118 0 0 0 39.655-.042 7.107 7.107 0 0 1 -5.624-5.958z" fill="#fbcfc6"/></svg>