<svg id="Layer_2" height="512" viewBox="0 0 128 128" width="512" xmlns="http://www.w3.org/2000/svg" data-name="Layer 2"><path d="m122.25 12.294c0-5.305 4-5.305 4-10.609h-120.5c0 5.3-4 5.3-4 10.609s4 5.3 4 10.609-4 5.3-4 10.6 4 5.3 4 10.605-4 5.3-4 10.6 4 5.3 4 10.6-4 5.3-4 10.6 4 5.3 4 10.6-4 5.3-4 10.6h58.221l-4.79-4.789a4.751 4.751 0 0 1 0-6.718 4.751 4.751 0 0 1 6.718 0l7.187 7.187v-33.965a4.75 4.75 0 1 1 9.5 0v-8.417a4.75 4.75 0 1 1 9.5 0v8.417a4.75 4.75 0 1 1 9.5 0v9.25a4.75 4.75 0 0 1 9.5 0v29.036h15.164c0-5.3 4-5.3 4-10.6s-4-5.3-4-10.6 4-5.3 4-10.6-4-5.3-4-10.6 4-5.3 4-10.6-4-5.3-4-10.605 4-5.3 4-10.6-4-5.304-4-10.61z" fill="#eef0f1"/><path d="m106.778 55.757a1.748 1.748 0 0 1 -1.653-1.178 13.038 13.038 0 0 0 -8.694-8.251 1.75 1.75 0 1 1 .968-3.363 16.536 16.536 0 0 1 11.033 10.47 1.748 1.748 0 0 1 -1.081 2.225 1.716 1.716 0 0 1 -.573.097z" fill="#d6d8d8"/><path d="m59.086 60.573a1.75 1.75 0 0 1 -1.75-1.75 16.582 16.582 0 0 1 11.936-15.858 1.75 1.75 0 0 1 .969 3.363 13.068 13.068 0 0 0 -9.405 12.495 1.75 1.75 0 0 1 -1.75 1.75z" fill="#d6d8d8"/><path d="m31.246 55.922.754-4.578.754 4.578a9 9 0 0 0 7.418 7.417l4.578.755-4.578.754a9 9 0 0 0 -7.418 7.417l-.754 4.579-.754-4.579a9 9 0 0 0 -7.418-7.417l-4.578-.754 4.578-.755a9 9 0 0 0 7.418-7.417z" fill="#f7d56b"/><path d="m48.943 26.28.757-4.58.754 4.579a9 9 0 0 0 7.415 7.421l4.578.754-4.578.755a9 9 0 0 0 -7.418 7.417l-.751 4.574-.754-4.578a9 9 0 0 0 -7.417-7.417l-4.579-.755 4.579-.754a9 9 0 0 0 7.414-7.416z" fill="#f7d56b"/><path d="m55.181 85.6a4.751 4.751 0 0 1 6.718 0l7.186 7.187v-33.964a4.75 4.75 0 1 1 9.5 0v-8.417a4.75 4.75 0 1 1 9.5 0v8.417a4.75 4.75 0 1 1 9.5 0v9.25a4.75 4.75 0 1 1 9.5 0v50.992h-38v-12.841l-13.9-13.9a4.751 4.751 0 0 1 -.004-6.724z" fill="#86dbd5"/><g fill="#eef0f1"><path d="m97.585 74.33a1.75 1.75 0 0 0 -1.75 1.75v10.486a1.75 1.75 0 0 0 3.5 0v-10.486a1.749 1.749 0 0 0 -1.75-1.75z"/><path d="m88.085 65.08a1.75 1.75 0 0 0 -1.75 1.75v20.16a1.75 1.75 0 0 0 3.5 0v-20.16a1.749 1.749 0 0 0 -1.75-1.75z"/><path d="m78.585 64.663a1.751 1.751 0 0 0 -1.75 1.75v20.577a1.75 1.75 0 0 0 3.5 0v-20.577a1.75 1.75 0 0 0 -1.75-1.75z"/></g><path d="m64.71 119.065h46.75v7.25h-46.75z" fill="#5b6ea2" transform="matrix(-1 0 0 -1 176.171 245.38)"/></svg>