<svg id="Layer_2" height="512" viewBox="0 0 128 128" width="512" xmlns="http://www.w3.org/2000/svg" data-name="Layer 2"><path d="m118.382 41.578 1.085-1.086a23.157 23.157 0 0 0 5.322-24.466l-17.108 17.108-9.905-2.91-2.91-9.905 17.108-17.108a23.157 23.157 0 0 0 -24.466 5.322l-1.086 1.085a22.59 22.59 0 0 0 -5.7 22.37l-48.734 48.736a22.59 22.59 0 0 0 -22.37 5.7l-1.085 1.084a23.157 23.157 0 0 0 -5.322 24.466l17.108-17.108 9.905 2.91 2.91 9.905-17.108 17.108a23.157 23.157 0 0 0 24.466-5.322l1.086-1.085a22.59 22.59 0 0 0 5.7-22.37l48.734-48.736a22.59 22.59 0 0 0 22.37-5.698z" fill="#f7d56b"/><path d="m32.812 60.61h62.375v6.78h-62.375z" fill="#5b6ea2" transform="matrix(.707 -.707 .707 .707 -26.51 64)"/></svg>